<svg aria-hidden="true" style="position: absolute; width: 0; height: 0; overflow: hidden;" version="1.1" xmlns="http://www.w3.org/2000/svg" xmlns:xlink="http://www.w3.org/1999/xlink">
<defs>
<symbol id="icon-facebook" viewBox="0 0 32 32">
<path fill="#3b5998" style="fill: var(--color1, #3b5998)" d="M32 16c0 8.837-7.163 16-16 16s-16-7.163-16-16c0-8.837 7.163-16 16-16s16 7.163 16 16z"></path>
<path fill="#fff" style="fill: var(--color2, #fff)" d="M20.022 16.626h-2.855v10.459h-4.326v-10.459h-2.057v-3.676h2.057v-2.379c0-1.701 0.808-4.365 4.364-4.365l3.204 0.013v3.568h-2.325c-0.381 0-0.918 0.191-0.918 1.002v2.163h3.233l-0.378 3.672z"></path>
</symbol>
<symbol id="icon-github" viewBox="0 0 32 32">
<path d="M16 0.396c-8.84 0-16 7.164-16 16 0 7.070 4.584 13.067 10.94 15.18 0.8 0.15 1.093-0.344 1.093-0.77 0-0.38-0.013-1.386-0.020-2.72-4.45 0.966-5.389-2.146-5.389-2.146-0.728-1.847-1.78-2.34-1.78-2.34-1.45-0.992 0.112-0.972 0.112-0.972 1.607 0.112 2.45 1.648 2.45 1.648 1.427 2.447 3.746 1.74 4.66 1.33 0.145-1.034 0.557-1.74 1.014-2.14-3.553-0.4-7.288-1.775-7.288-7.906 0-1.747 0.62-3.173 1.647-4.293-0.18-0.404-0.72-2.031 0.14-4.235 0 0 1.34-0.43 4.4 1.64 1.28-0.356 2.64-0.532 4-0.54 1.36 0.008 2.72 0.184 4 0.54 3.040-2.070 4.38-1.64 4.38-1.64 0.86 2.204 0.32 3.83 0.16 4.235 1.020 1.12 1.64 2.546 1.64 4.293 0 6.147-3.74 7.5-7.3 7.893 0.56 0.48 1.080 1.462 1.080 2.96 0 2.142-0.020 3.862-0.020 4.382 0 0.42 0.28 0.92 1.1 0.76 6.401-2.099 10.981-8.099 10.981-15.159 0-8.836-7.164-16-16-16z"></path>
</symbol>
<symbol id="icon-linkedin" viewBox="0 0 32 32">
<path fill="#0077b5" style="fill: var(--color3, #0077b5)" d="M27.263 27.27h-4.739v-7.426c0-1.77-0.036-4.050-2.47-4.050-2.47 0-2.847 1.927-2.847 3.92v7.555h-4.739v-15.269h4.552v2.081h0.061c0.636-1.2 2.183-2.466 4.494-2.466 4.801 0 5.689 3.16 5.689 7.273zM7.116 9.91c-1.519 0-2.75-1.231-2.75-2.75 0-0.001 0-0.002 0-0.003v0c0.001-1.519 1.232-2.751 2.752-2.751s2.752 1.232 2.752 2.752-1.232 2.752-2.752 2.752c-0.001 0-0.001 0-0.002 0h0zM9.492 27.27h-4.752v-15.27h4.752zM29.633 0h-27.272c-1.305 0-2.361 1.032-2.361 2.305v27.39c0 1.274 1.056 2.305 2.361 2.305h27.269c1.303 0 2.37-1.030 2.37-2.305v-27.39c0-1.273-1.067-2.305-2.37-2.305z"></path>
</symbol>
<symbol id="icon-upwork" viewBox="0 0 32 32">
<path fill="#6fda44" style="fill: var(--color4, #6fda44)" d="M24.748 17.544c-1.47 0-2.847-0.623-4.099-1.636l0.304-1.435 0.011-0.056c0.276-1.524 1.132-4.080 3.785-4.080 1.99 0.001 3.603 1.614 3.604 3.604v0c-0.003 1.989-1.616 3.601-3.605 3.603h-0zM24.748 6.691c-3.385 0-6.013 2.198-7.080 5.821-1.627-2.445-2.864-5.381-3.583-7.856h-3.648v9.483c-0.003 1.875-1.521 3.394-3.396 3.397h-0c-1.873-0.005-3.391-1.523-3.393-3.397v-9.483h-3.648v9.483c0 3.885 3.16 7.070 7.041 7.070 3.884 0 7.044-3.185 7.044-7.070v-1.587c0.706 1.476 1.576 2.972 2.632 4.295l-2.23 10.497h3.729l1.617-7.613c1.418 0.905 3.047 1.478 4.915 1.478 4 0 7.252-3.269 7.252-7.266 0-4-3.252-7.252-7.252-7.252z"></path>
</symbol>
<symbol id="icon-viber" viewBox="0 0 32 32">
<path fill="#6f3faa" style="fill: var(--color5, #6f3faa)" d="M32 16c0 8.837-7.163 16-16 16s-16-7.163-16-16c0-8.837 7.163-16 16-16s16 7.163 16 16z"></path>
<path fill="#512d84" style="fill: var(--color6, #512d84)" d="M22.941 8.778c-3.895-0.941-7.796-2.041-11.79-0.643-2.586 0.97-2.586 3.771-2.478 6.141 0 0.646-0.754 1.508-0.431 2.263 0.646 2.155 1.185 4.31 3.448 5.387 0.323 0.215 0 0.646 0.216 0.97-0.108 0-0.323 0.108-0.323 0.215 0 0.516 0.232 1.306 0.078 1.816l6.875 6.872c7.068-1.126 12.592-6.879 13.37-14.058l-8.964-8.964z"></path>
<path fill="#fff" style="fill: var(--color2, #fff)" d="M24.464 11.245l-0.005-0.021c-0.427-1.728-2.355-3.583-4.125-3.969l-0.020-0.004c-2.863-0.546-5.766-0.546-8.628 0l-0.021 0.004c-1.769 0.386-3.697 2.24-4.125 3.969l-0.005 0.021c-0.529 2.414-0.529 4.861 0 7.275l0.005 0.021c0.41 1.654 2.194 3.424 3.898 3.91v1.929c0 0.698 0.851 1.041 1.335 0.537l1.955-2.032c0.424 0.024 0.848 0.037 1.272 0.037 1.441 0 2.883-0.136 4.314-0.409l0.020-0.004c1.77-0.386 3.697-2.24 4.125-3.969l0.005-0.021c0.529-2.414 0.529-4.861 0-7.275zM22.917 18.17c-0.285 1.128-1.749 2.529-2.912 2.788-1.522 0.29-3.056 0.413-4.589 0.371-0.001-0-0.002-0-0.003-0-0.030 0-0.058 0.013-0.078 0.033l-0 0c-0.218 0.223-1.427 1.465-1.427 1.465l-1.518 1.558c-0.111 0.116-0.306 0.037-0.306-0.123v-3.196c0-0.053-0.038-0.098-0.090-0.108l-0.001-0c-1.163-0.259-2.626-1.661-2.912-2.788-0.476-2.182-0.476-4.393 0-6.575 0.286-1.128 1.749-2.529 2.912-2.788 2.659-0.506 5.354-0.506 8.012 0 1.163 0.259 2.626 1.661 2.912 2.788 0.476 2.182 0.476 4.393-0 6.575z"></path>
<path fill="#fff" style="fill: var(--color2, #fff)" d="M18.529 19.645c-0.179-0.054-0.349-0.091-0.507-0.156-1.639-0.68-3.148-1.558-4.343-2.903-0.68-0.765-1.212-1.628-1.661-2.542-0.213-0.433-0.393-0.884-0.576-1.331-0.167-0.408 0.079-0.829 0.338-1.137 0.243-0.289 0.556-0.509 0.895-0.672 0.264-0.127 0.525-0.054 0.718 0.17 0.417 0.485 0.801 0.994 1.111 1.555 0.191 0.345 0.139 0.768-0.207 1.003-0.084 0.057-0.161 0.124-0.239 0.189-0.069 0.057-0.133 0.114-0.181 0.19-0.086 0.14-0.090 0.305-0.035 0.458 0.427 1.173 1.146 2.084 2.326 2.576 0.189 0.079 0.378 0.17 0.596 0.145 0.364-0.043 0.482-0.442 0.738-0.651 0.25-0.204 0.569-0.207 0.837-0.037s0.53 0.353 0.789 0.538c0.254 0.181 0.508 0.358 0.742 0.565 0.226 0.199 0.303 0.459 0.176 0.729-0.233 0.494-0.571 0.904-1.059 1.167-0.138 0.074-0.302 0.098-0.458 0.146-0.179-0.054 0.155-0.048 0 0zM16.004 10.339c2.144 0.060 3.906 1.483 4.283 3.603 0.064 0.361 0.087 0.73 0.116 1.097 0.012 0.154-0.075 0.301-0.242 0.303-0.172 0.002-0.249-0.142-0.26-0.296-0.022-0.305-0.037-0.612-0.079-0.914-0.222-1.597-1.496-2.919-3.086-3.203-0.239-0.043-0.484-0.054-0.727-0.079-0.153-0.016-0.354-0.025-0.388-0.216-0.028-0.16 0.106-0.287 0.258-0.295 0.041-0.002 0.083-0.001 0.124-0 2.144 0.060-0.041-0 0 0z"></path>
<path fill="#fff" style="fill: var(--color2, #fff)" d="M19.263 14.564c-0.004 0.027-0.005 0.090-0.021 0.149-0.057 0.215-0.383 0.242-0.458 0.025-0.022-0.064-0.026-0.138-0.026-0.207-0.001-0.454-0.099-0.908-0.329-1.303-0.235-0.406-0.595-0.748-1.017-0.954-0.255-0.125-0.531-0.203-0.811-0.249-0.122-0.020-0.246-0.032-0.369-0.050-0.149-0.021-0.228-0.116-0.221-0.262 0.007-0.137 0.107-0.236 0.257-0.228 0.492 0.028 0.967 0.134 1.405 0.366 0.89 0.471 1.398 1.215 1.546 2.208 0.007 0.045 0.017 0.090 0.021 0.135 0.008 0.111 0.014 0.223 0.022 0.37-0.004 0.027-0.009-0.147 0 0z"></path>
<path fill="#fff" style="fill: var(--color2, #fff)" d="M17.93 14.512c-0.179 0.003-0.275-0.096-0.294-0.261-0.013-0.115-0.023-0.231-0.050-0.342-0.054-0.22-0.171-0.423-0.356-0.558-0.087-0.064-0.186-0.11-0.29-0.14-0.132-0.038-0.268-0.028-0.399-0.060-0.143-0.035-0.221-0.15-0.199-0.284 0.020-0.122 0.139-0.217 0.272-0.207 0.831 0.060 1.426 0.49 1.51 1.469 0.006 0.069 0.013 0.142-0.002 0.208-0.026 0.113-0.11 0.17-0.192 0.175-0.179 0.003 0.082-0.005 0 0z"></path>
<path fill="#d1d1d1" style="fill: var(--color7, #d1d1d1)" d="M24.464 11.245l-0.005-0.021c-0.24-0.969-0.951-1.977-1.841-2.744l-1.204 1.067c0.716 0.57 1.329 1.36 1.503 2.049 0.476 2.182 0.476 4.393 0 6.575-0.285 1.128-1.749 2.529-2.912 2.788-1.522 0.29-3.056 0.413-4.589 0.371-0.001-0-0.002-0-0.003-0-0.030 0-0.058 0.013-0.078 0.033l-0 0c-0.218 0.223-1.427 1.465-1.427 1.465l-1.518 1.558c-0.111 0.116-0.306 0.037-0.306-0.123v-3.196c0-0.053-0.038-0.098-0.090-0.108l-0.001-0c-0.661-0.147-1.418-0.664-2.002-1.289l-1.189 1.054c0.743 0.808 1.701 1.461 2.636 1.728v1.929c0 0.698 0.851 1.041 1.335 0.537l1.955-2.032c0.424 0.024 0.848 0.037 1.272 0.037 1.441 0 2.883-0.136 4.314-0.409l0.020-0.004c1.77-0.386 3.697-2.24 4.125-3.969l0.005-0.021c0.529-2.414 0.529-4.861 0-7.275z"></path>
<path fill="#fff" style="fill: var(--color2, #fff)" d="M18.529 19.645c0.155-0.048-0.179-0.054 0 0z"></path>
<path fill="#d1d1d1" style="fill: var(--color7, #d1d1d1)" d="M19.87 17.604c-0.235-0.207-0.488-0.384-0.742-0.565-0.259-0.185-0.52-0.367-0.789-0.538s-0.588-0.167-0.837 0.037c-0.255 0.209-0.373 0.609-0.738 0.651-0.218 0.025-0.407-0.066-0.596-0.145-0.726-0.302-1.277-0.764-1.694-1.347l-0.885 0.784c0.030 0.035 0.059 0.071 0.089 0.105 1.195 1.345 2.704 2.223 4.343 2.903 0.158 0.066 0.329 0.102 0.507 0.156-0.179-0.054 0.155-0.048 0 0 0.155-0.048 0.32-0.072 0.458-0.146 0.488-0.262 0.826-0.673 1.059-1.167 0.127-0.27 0.049-0.53-0.176-0.729z"></path>
<path fill="#fff" style="fill: var(--color2, #fff)" d="M16.010 10.339c-0.002 0-0.004-0-0.005-0s0 0 0.005 0zM16.005 10.339c0.002 0 0.004 0 0.005 0 0.119 0.004 2.055 0.058-0.005-0z"></path>
<path fill="#d1d1d1" style="fill: var(--color7, #d1d1d1)" d="M19.080 11.615l-0.377 0.334c0.593 0.577 1.002 1.341 1.119 2.183 0.042 0.303 0.057 0.609 0.079 0.914 0.011 0.154 0.088 0.298 0.26 0.296 0.166-0.002 0.254-0.149 0.242-0.303-0.029-0.367-0.052-0.736-0.116-1.097-0.165-0.928-0.596-1.722-1.207-2.328zM19.22 14.059c-0.108-0.724-0.408-1.314-0.907-1.764l-0.376 0.333c0.195 0.173 0.363 0.376 0.492 0.599 0.229 0.395 0.328 0.849 0.329 1.303 0 0.069 0.003 0.143 0.026 0.207 0.075 0.217 0.402 0.19 0.458-0.025 0.016-0.059 0.018-0.122 0.021-0.149-0.004 0.027-0.009-0.147 0 0-0.009-0.147-0.014-0.259-0.022-0.37-0.003-0.045-0.014-0.090-0.021-0.135z"></path>
<path fill="#fff" style="fill: var(--color2, #fff)" d="M19.263 14.564c-0.009-0.147-0.004 0.027 0 0zM17.93 14.512c0.003-0 0.006-0.002 0.008-0.002-0.008 0-0.019 0-0.031 0.001 0.008 0 0.015 0.001 0.023 0.001z"></path>
<path fill="#fff" style="fill: var(--color2, #fff)" d="M17.93 14.512c-0.008 0-0.015-0.001-0.023-0.001-0.039 0.001-0.079 0.003 0.023 0.001zM17.938 14.51c-0.003 0-0.006 0.002-0.008 0.002 0.021-0.001 0.019-0.002 0.008-0.002z"></path>
<path fill="#d1d1d1" style="fill: var(--color7, #d1d1d1)" d="M17.551 12.97l-0.383 0.339c0.021 0.013 0.042 0.026 0.062 0.041 0.185 0.135 0.302 0.338 0.356 0.558 0.027 0.112 0.038 0.228 0.050 0.342 0.018 0.157 0.107 0.254 0.271 0.259 0.012-0 0.024-0.001 0.031-0.001 0.079-0.009 0.158-0.064 0.183-0.173 0.015-0.066 0.008-0.139 0.002-0.208-0.048-0.547-0.255-0.923-0.573-1.158z"></path>
</symbol>
<symbol id="icon-whatsapp" viewBox="0 0 32 32">
<path fill="#25d366" style="fill: var(--color8, #25d366)" d="M23.33 19.176c-0.4-0.2-2.355-1.156-2.72-1.288-0.363-0.135-0.63-0.2-0.897 0.2-0.262 0.393-1.028 1.285-1.258 1.55-0.234 0.26-0.466 0.28-0.862 0.1-0.4-0.2-1.684-0.62-3.204-1.98-1.184-1.060-1.978-2.36-2.213-2.76-0.232-0.4-0.025-0.62 0.173-0.82 0.182-0.18 0.402-0.46 0.602-0.698 0.194-0.241 0.258-0.401 0.396-0.661 0.133-0.28 0.065-0.5-0.034-0.699s-0.896-2.16-1.229-2.941c-0.32-0.779-0.65-0.68-0.896-0.68-0.23-0.020-0.495-0.020-0.761-0.020s-0.698 0.098-1.063 0.478c-0.364 0.4-1.393 1.36-1.393 3.3s1.426 3.82 1.625 4.1c0.199 0.26 2.807 4.26 6.8 5.98 0.952 0.4 1.693 0.64 2.272 0.839 0.952 0.303 1.82 0.26 2.507 0.161 0.765-0.121 2.356-0.961 2.688-1.901 0.34-0.94 0.34-1.72 0.24-1.9-0.099-0.18-0.36-0.28-0.76-0.46zM16.082 29h-0.021c-2.36 0-4.699-0.64-6.74-1.84l-0.48-0.285-5 1.3 1.34-4.86-0.319-0.5c-1.269-1.987-2.022-4.41-2.022-7.009 0-0.002 0-0.004 0-0.007v0c0-7.26 5.94-13.18 13.256-13.18 3.539 0 6.86 1.38 9.361 3.88 2.395 2.367 3.879 5.652 3.879 9.284 0 0.013-0 0.025-0 0.038v-0.002c-0.005 7.259-5.947 13.18-13.247 13.18zM27.36 4.599c-3.040-2.939-7.040-4.599-11.3-4.599-8.776 0-15.921 7.112-15.925 15.857 0 2.795 0.732 5.52 2.126 7.927l-2.261 8.216 8.447-2.203c2.201 1.211 4.823 1.925 7.612 1.93h0.009c8.78 0 15.928-7.115 15.932-15.862 0-4.234-1.653-8.22-4.66-11.214z"></path>
</symbol>
<symbol id="gmail" viewBox="0 0 32 32">
<path fill="#D14836" d="M32 6v20c0 1.133-.867 2-2 2h-2V9.85l-12 8.617L4 9.849V28H2c-1.135 0-2-.867-2-2V6c0-.567.216-1.067.575-1.424A1.98 1.98 0 012 4h.667L16 13.667 29.333 4H30a1.99 1.99 0 011.425.576c.36.357.575.857.575 1.424z"/></path>
<symbol>

</defs>
</svg>
