<svg xmlns="http://www.w3.org/2000/svg" width="32" height="32" data-tags="upwork"><path fill="#6FDA44" d="M24.748 17.544c-1.47 0-2.847-.623-4.099-1.636l.304-1.435.011-.056c.276-1.524 1.132-4.08 3.785-4.08a3.606 3.606 0 013.604 3.604 3.609 3.609 0 01-3.605 3.603zm0-10.853c-3.385 0-6.013 2.198-7.08 5.821-1.627-2.445-2.864-5.381-3.583-7.856h-3.648v9.483a3.402 3.402 0 01-3.396 3.397 3.401 3.401 0 01-3.393-3.397V4.656H0v9.483c0 3.885 3.16 7.07 7.041 7.07 3.884 0 7.044-3.185 7.044-7.07v-1.587c.706 1.476 1.576 2.972 2.632 4.295l-2.23 10.497h3.729l1.617-7.613c1.418.905 3.047 1.478 4.915 1.478 4 0 7.252-3.269 7.252-7.266 0-4-3.252-7.252-7.252-7.252z"/></svg>